PathFileType	4	(X/Y/Z)	C:/Users/beibeiliu/ov580/test_trc/User3\sequence.10_training_dense_right.trc
DataRate	CameraRate	NumFrames	NumMarkers	Units	OrigDataRate	OrigDataStartFrame	OrigNumFrames
120	120	10	19	mm	120	66	263
Frame#	Time	ThumbCMC			ThumbMCP			ThumbIP			ThumbTip			IndexMCP			IndexPIP			IndexTip			MiddleMCP			MiddlePIP			MiddleTip			RingMCP			RingPIP			RingTip			PinkyMCP			PinkyPIP			PinkyTip			BackHand1			BackHand2			BackHand3	
		X0	Y0	Z0	X1	Y1	Z1	X2	Y2	Z2	X3	Y3	Z3	X4	Y4	Z4	X5	Y5	Z5	X6	Y6	Z6	X7	Y7	Z7	X8	Y8	Z8	X9	Y9	Z9	X10	Y10	Z10	X11	Y11	Z11	X12	Y12	Z12	X13	Y13	Z13	X14	Y14	Z14	X15	Y15	Z15	X16	Y16	Z16	X17	Y17	Z17	X18	Y18	Z18	
65	0.541667	199.552	-15.2679	24.3233	201.177	-12.6385	-3.05752	207.906	-6.04955	-29.9045	208.334	-1.6283	-50.696	163.559	-46.2368	-36.7599	134.046	-32.6524	-24.9291	150.494	-27.3717	0.844627	146.205	-63.9055	-28.9198	127.114	-44.7998	-15.1523	154.735	-38.1027	11.3726	142.933	-72.3484	-15.3642	123.942	-53.3122	-1.60556	147.487	-43.2193	20.3852	138.411	-83.7002	-0.436644	124.793	-62.5467	12.1812	145.345	-55.3964	28.4321	190.232	-81.6835	20.7474	199.521	-69.7685	50.5151	206.735	-51.5212	18.8495	
66	0.55	199.981	-15.5477	23.1112	200.983	-12.3526	-2.51164	208.746	-7.51413	-33.2099	208.162	-4.36109	-52.5951	161.173	-49.5461	-36.9034	135.866	-32.3817	-30.4313	155.094	-27.6494	0.711723	152.255	-66.0719	-28.67	128.07	-46.604	-16.3864	157.528	-42.7466	12.2744	141.891	-76.3954	-15.6252	124.497	-55.8541	0.67256	146.636	-45.473	19.6658	140.784	-87.6975	-0.441066	124.881	-68.1279	6.95688	145.797	-58.6081	30.648	190.815	-85.7479	18.7897	198.705	-72.6501	49.1203	206.901	-49.645	21.3544	
67	0.558333	201.359	-15.4715	23.0013	202.338	-13.5929	-3.82334	206.447	-12.0796	-33.3303	209.048	-4.21821	-52.4476	163.203	-52.3782	-37.0263	137.579	-34.3689	-29.2456	153.892	-31.3207	-7.00777e-05	151.239	-64.3999	-30.5972	129.309	-49.3751	-16.8945	155.416	-43.4519	11.8222	147.668	-80.8005	-13.2209	125.658	-60.0586	-3.43214	147.227	-48.5483	19.6378	141.536	-91.2782	1.90414	127.29	-65.5356	7.8371	145.391	-58.9557	29.3301	192.994	-83.3594	21.8291	200.825	-73.9515	53.1729	208.817	-49.4906	18.2078	
68	0.566667	200.329	-16.7099	23.2871	201.638	-14.881	-1.75742	209.229	-7.78289	-33.0374	210.263	-4.64447	-52.7256	166.629	-54.5843	-35.6543	137.168	-40.5976	-30.4493	154.116	-29.8561	-2.60846	150.652	-70.0908	-29.5622	130.562	-52.2404	-16.6588	156.931	-45.3618	12.2263	146.792	-82.9119	-13.0663	127.425	-61.2442	-3.81708	151.089	-48.3435	19.6227	143.177	-90.9919	0.7219	128.3	-71.3625	5.62524	149.899	-59.2931	27.7828	194.967	-82.6387	21.7104	200.822	-74.5891	49.9568	207.78	-54.1144	20.6097	
69	0.575	199.139	-23.1633	21.777	202.466	-17.37	-2.3147	209.324	-13.193	-34.549	209.199	-7.42393	-51.416	164.777	-53.5913	-38.9892	138.815	-39.1615	-30.4813	154.735	-31.0144	-2.47493	154.649	-70.6878	-29.6861	131.967	-50.9216	-17.9837	157.505	-49.2257	12.8191	149.607	-83.9491	-12.6734	128.831	-62.8214	-4.73729	150.118	-53.6048	22.275	144.247	-90.2574	-0.823571	126.794	-74.0326	9.65697	147.229	-63.2071	28.953	194.084	-87.6769	21.1609	203.432	-71.1313	51.3633	209.172	-50.1811	22.9029	
70	0.583333	199.654	-23.0847	23.8108	203.014	-19.8621	-4.88791	211.327	-12.9471	-34.0799	212.063	-9.88651	-53.9037	163.24	-59.0392	-37.6234	139.651	-40.6903	-30.0285	160.221	-32.5712	-1.80905	154.62	-75.9509	-27.2892	132.745	-52.7779	-20.3179	156.087	-48.9524	11.7449	150.663	-83.144	-12.8927	128.334	-63.622	-4.29518	150.178	-50.2205	19.3382	144.079	-91.9724	-0.552306	129.41	-70.801	10.6776	148.667	-61.3664	26.7749	192.45	-88.8757	21.4957	201.136	-75.4063	49.035	210.854	-55.6991	21.4577	
71	0.591667	200.794	-24.7117	21.9605	206.474	-18.1631	-3.95049	208.735	-18.917	-34.7623	213.007	-12.3061	-57.0885	166.397	-59.5848	-37.6353	139.38	-44.2483	-27.3612	156.984	-33.308	-3.73401	153.813	-72.9182	-29.808	132.403	-53.9795	-19.4417	162.046	-48.1142	11.02	148.374	-84.0233	-12.6027	128.143	-67.4915	-0.520204	153.075	-52.0561	21.4804	144.705	-94.4401	3.84104	129.597	-72.7429	7.68134	148.542	-63.9661	27.1996	194.889	-90.0206	24.8691	202.502	-73.681	53.9897	209.193	-53.9686	24.7081	
72	0.6	201.216	-24.5519	24.673	205.855	-22.3918	-6.95575	209.057	-21.4897	-35.4862	211.075	-16.5152	-57.0093	167.574	-63.4257	-35.1125	138.636	-44.4383	-26.7107	158.201	-38.1674	-1.2444	153.597	-75.9729	-27.4618	131.06	-57.1386	-15.0642	158.447	-48.5644	10.4266	149.843	-86.1859	-11.4772	128.933	-63.5082	-1.46521	150.904	-55.1256	23.0844	145.845	-94.7537	4.447	131.353	-70.5829	10.9088	153.164	-65.1041	31.9758	194.369	-90.4138	25.0153	201.015	-78.9586	50.7773	209.582	-56.0468	19.2576	
73	0.608333	201.416	-27.1169	20.5968	207.292	-19.7503	-6.31167	207.655	-21.29	-34.6677	210.328	-18.0281	-55.6298	165.512	-62.7303	-36.5614	139.781	-42.1695	-30.7009	155.424	-35.1577	-2.88473	153.459	-76.2778	-27.5981	131.092	-58.1552	-17.8851	157.537	-48.9359	10.5774	149.528	-86.2227	-10.9747	125.69	-66.2522	1.42309	149.504	-54.043	22.5753	142.76	-95.1209	6.77242	128.019	-72.2848	14.8331	153.811	-63.6028	32.6437	192.138	-89.0192	22.4361	201.402	-75.7502	52.5931	209.243	-55.3165	22.1718	
74	0.616667	200.403	-26.7636	21.1962	204.285	-24.5779	-8.21599	206.909	-22.3342	-34.4972	207.827	-20.6793	-57.4871	164.264	-62.7091	-35.8415	137.689	-42.7213	-28.5203	153.696	-38.8348	-0.998791	151.363	-75.9929	-26.7938	129.512	-57.2521	-14.2764	154.797	-50.1731	12.4792	147.329	-87.3936	-9.65304	125.824	-63.6701	3.41713	145.974	-52.483	22.3218	140.651	-94.7096	7.41224	127.734	-68.8776	14.6597	153.169	-62.0172	29.5731	189.367	-92.5131	23.8545	200.407	-76.0027	53.6433	208.281	-59.2898	19.0381	
